Coordinates
version=1
nRows=5
nColumns=42
inDegrees=yes

Units are S.I. units (second, meters, Newtons, ...)
If the header above contains a line with 'inDegrees', this indicates whether rotational values are in degrees (yes) or radians (no).

endheader
time	pelvis_tilt	pelvis_list	pelvis_rotation	pelvis_tx	pelvis_ty	pelvis_tz	hip_flexion_r	hip_adduction_r	hip_rotation_r	knee_angle_r	knee_adduction_r	knee_angle_r_beta	ankle_angle_r	subtalar_angle_r	mtp_angle_r	hip_flexion_l	hip_adduction_l	hip_rotation_l	knee_angle_l	knee_adduction_l	knee_angle_l_beta	ankle_angle_l	subtalar_angle_l	mtp_angle_l	lumbar_extension	lumbar_bending	lumbar_rotation	arm_flex_r	arm_add_r	arm_rot_r	elbow_flex_r	pro_sup_r	wrist_flex_r	wrist_dev_r	arm_flex_l	arm_add_l	arm_rot_l	elbow_flex_l	pro_sup_l	wrist_flex_l	wrist_dev_l
      0.78000000	     13.77804159	     -0.46208779	     -7.32518430	     -0.28356430	      0.85305902	     -0.18545984	    -15.31972150	     -2.16084523	      1.40637870	     57.76262946	      0.73457999	      1.00814807	      0.17292120	    -18.60793028	     -7.61431778	      2.25686102	      2.86898632	    -14.14590602	     21.52676878	      0.82797365	      0.37571299	     12.52108282	    -14.10050073	     -7.61431778	    -26.52540778	     -4.02439006	      7.35565616	     10.24046056	     -7.31041479	     -0.31176870	     42.85618361	     90.00000001	      0.00000000	      0.00000000	     -1.30310503	     -3.89771901	    -13.93365966	     25.26674317	     90.00000001	      0.00000000	      0.00000000
      0.79000000	     13.81354321	     -0.61198294	     -7.23910373	     -0.27334988	      0.85436997	     -0.18612963	    -13.70306364	     -2.01838821	      1.46295582	     60.33066607	      0.51954000	      1.05296876	      1.03413421	    -18.76781144	     -7.61233421	      1.07804698	      2.78866035	    -14.61339942	     20.89213266	      0.95924906	      0.36463650	     12.92922318	    -13.51401285	     -7.61233421	    -26.75274985	     -3.75891521	      7.25487682	      9.28877894	     -7.28305828	     -0.26488147	     42.04484319	     90.00000001	      0.00000000	      0.00000000	     -0.08798692	     -4.16833171	    -13.74134647	     25.91672068	     90.00000001	      0.00000000	      0.00000000
      0.80000000	     13.63752305	     -0.67617868	     -6.97783967	     -0.26329959	      0.85532269	     -0.18696266	    -11.78742663	     -1.93030780	      0.79515267	     62.75072480	     -0.07307102	      1.09520676	      3.06788151	    -18.82156920	     -7.60726781	      0.26885173	      2.81937696	    -15.01733144	     20.38982815	      0.91015644	      0.35586964	     13.75244523	    -12.35335127	     -7.60726781	    -26.73654940	     -3.52019435	      6.80651532	      8.90484646	     -6.95753510	     -0.31353415	     39.64485634	     90.00000001	      0.00000000	      0.00000000	      0.99680131	     -4.62968531	    -13.05957372	     26.45422285	     90.00000001	      0.00000000	      0.00000000
      0.81000000	     13.62677789	     -0.92623691	     -6.78903868	     -0.25328060	      0.85657593	     -0.18756636	    -10.09525062	     -1.54992938	      0.12897605	     64.71763006	     -0.92981403	      1.12953573	      4.18097549	    -18.88910449	     -7.59902943	     -0.78505249	      2.57904765	    -15.78448787	     19.87025759	      0.95755323	      0.34680142	     14.36897162	    -11.02012682	     -7.59902943	    -26.89942964	     -3.11740891	      6.65219374	      8.39337483	     -6.68491210	     -0.82427823	     37.53748437	     90.00000001	      0.00000000	      0.00000000	      2.11505297	     -5.11850516	    -11.89382021	     27.36688948	     90.00000001	      0.00000000	      0.00000000
      0.82000000	     13.60974518	     -1.20167816	     -6.61264244	     -0.24339455	      0.85779665	     -0.18824546	     -8.38347642	     -1.14538456	     -0.37944537	     66.39893859	     -1.62163278	      1.15888010	      5.35927641	    -18.96919652	     -7.59727589	     -1.89465056	      2.36698149	    -16.13368101	     19.19958024	      1.07423734	      0.33509589	     14.71246895	    -10.42368519	     -7.59727589	    -27.09427036	     -2.67129040	      6.58318866	      7.42029397	     -6.72229575	     -0.90143295	     36.76271877	     90.00000001	      0.00000000	      0.00000000	      3.40196633	     -5.35560114	    -11.66894458	     28.08127750	     90.00000001	      0.00000000	      0.00000000
